<?xml version="1.0" standalone="no"?>
<!DOCTYPE svg PUBLIC "-//W3C//DTD SVG 20010904//EN" "http://www.w3.org/TR/2001/REC-SVG-20010904/DTD/svg10.dtd">
<svg version="1.0" xmlns="http://www.w3.org/2000/svg"
    width="2600.000000pt" height="800.000000pt" viewBox="0 0 2600.000000 800.000000"
    preserveAspectRatio="xMidYMid meet">

    <defs>
        <linearGradient id="myGradient"
            gradientTransform="rotate(135)">
            <stop offset="0%" stop-color="#0C57FA" />
            <stop offset="50%" stop-color="#1E90FF" />
            <stop offset="100%" stop-color="#ffffff" />
        </linearGradient>
    </defs>

    <g transform="translate(0.000000,800.000000) scale(0.100000,-0.100000)"
        fill="url(#myGradient)" stroke="none">
        <g fill="url(#myGradient)" stroke="none">
            <path
                d="M4792 6389 c-836 -74 -1567 -574 -1937 -1324 -86 -174 -134 -300
-174 -458 -146 -567 -88 -1140 168 -1662 238 -484 605 -853 1086 -1090 174
-86 300 -134 458 -174 567 -146 1140 -88 1662 168 484 238 853 605 1090 1086
86 174 134 300 174 458 146 567 88 1140 -168 1662 -194 395 -463 700 -834 948
-119 79 -360 200 -500 252 -316 115 -687 164 -1025 134z m681 -323 c248 -58
510 -172 716 -313 169 -116 182 -150 30 -79 -134 63 -254 103 -398 133 -114
25 -146 27 -341 27 -155 0 -241 -5 -309 -16 -99 -18 -117 -27 -108 -52 5 -13
23 -16 91 -16 118 0 270 -17 413 -45 617 -124 1128 -517 1418 -1092 97 -191
122 -292 132 -533 10 -239 -27 -507 -99 -724 -42 -126 -65 -142 -52 -35 5 41
9 164 9 274 0 227 -18 344 -82 534 -43 131 -146 349 -168 357 -35 14 -37 -12
-7 -114 169 -562 103 -1152 -182 -1636 -130 -221 -371 -492 -527 -593 -234
-152 -659 -263 -1004 -263 -95 0 -106 2 -103 17 2 13 26 21 105 35 262 46 519
164 748 343 106 83 245 218 245 237 0 35 -33 24 -139 -46 -185 -124 -431 -239
-631 -295 -280 -78 -628 -89 -920 -30 -298 60 -646 215 -798 354 -198 182
-396 488 -505 785 -45 121 -55 170 -34 170 8 0 20 -14 27 -30 25 -59 121 -213
184 -293 85 -110 251 -267 364 -347 120 -84 311 -191 337 -188 44 6 25 35 -71
108 -222 170 -433 415 -567 661 -107 196 -201 486 -227 704 -17 138 -15 416 4
549 36 245 76 353 204 547 145 220 343 426 546 568 104 72 104 50 -1 -64 -215
-236 -369 -540 -432 -855 -11 -58 -22 -125 -23 -150 -3 -39 0 -45 18 -48 19
-3 26 10 58 105 106 308 324 642 556 849 256 230 544 384 874 469 275 70 443
78 649 31z" />
            <g>
                <path
                    d="M3514 4586 c-3 -8 55 -277 129 -598 l134 -583 196 -3 196 -2 9 32 c5
19 35 147 67 285 56 244 70 282 96 256 5 -5 36 -128 69 -273 33 -146 63 -273
66 -282 5 -16 23 -18 199 -18 l194 0 10 38 c44 164 261 1137 257 1148 -4 11
-33 14 -140 14 -74 0 -137 -4 -141 -9 -3 -5 -39 -159 -80 -343 -91 -402 -82
-370 -108 -366 -19 3 -28 36 -102 348 -44 190 -84 351 -88 358 -6 9 -48 12
-152 12 -104 0 -146 -3 -152 -12 -4 -7 -44 -168 -88 -358 -74 -313 -83 -345
-102 -348 -26 -4 -17 -36 -108 366 -41 184 -77 338 -80 343 -4 5 -67 9 -141 9
-107 0 -136 -3 -140 -14z" />
                <path
                    d="M5317 4587 c-15 -11 -17 -29 -15 -147 l3 -135 211 -3 c161 -2 215 -6
223 -16 7 -9 12 -151 13 -447 l3 -434 145 0 145 0 3 434 c1 296 6 438 13 447
8 10 62 14 223 16 l211 3 3 134 c2 90 -1 138 -9 147 -16 20 -1146 21 -1172 1z" />
            </g>
        </g>
        <path
            d="M20955 6029 c-372 -51 -685 -281 -826 -609 -48 -112 -66 -180 -81
-311 -21 -193 15 -399 102 -574 279 -564 1027 -750 1552 -386 89 61 213 184
206 203 -3 8 -76 81 -163 163 l-157 149 -50 -57 c-65 -75 -163 -144 -247 -175
-79 -29 -209 -39 -296 -23 -188 34 -353 191 -418 396 -31 100 -31 289 0 390
31 99 87 187 164 260 169 159 399 190 619 83 46 -22 89 -56 148 -115 l83 -84
157 149 c86 82 158 156 160 164 4 23 -126 147 -220 208 -209 138 -490 203
-733 169z" />
        <path
            d="M8022 5913 c10 -49 110 -497 222 -998 l203 -910 259 -3 259 -2 175
640 c96 352 177 640 180 640 3 0 83 -288 179 -640 l174 -640 257 0 258 0 10
43 c21 84 432 1935 432 1946 0 8 -73 11 -239 11 l-239 0 -5 -22 c-3 -13 -56
-279 -117 -593 -129 -660 -121 -622 -130 -604 -4 8 -83 285 -176 617 l-169
602 -228 -2 -229 -3 -170 -605 c-93 -333 -173 -608 -177 -612 -4 -4 -61 268
-127 605 l-119 612 -252 3 -251 2 20 -87z" />
        <path
            d="M11511 5868 c-29 -73 -204 -522 -390 -998 l-337 -865 249 -3 249 -2
64 59 c272 255 713 251 969 -9 l49 -50 262 0 261 0 -349 908 c-192 499 -365
949 -384 1000 l-36 92 -278 0 -278 0 -51 -132z m477 -822 c82 -240 148 -436
147 -436 -1 0 -29 14 -63 30 -68 35 -173 60 -247 60 -74 0 -182 -26 -250 -59
-33 -17 -61 -29 -62 -28 -1 2 52 158 117 347 195 561 192 554 202 537 4 -9 75
-212 156 -451z" />
        <path
            d="M12720 5790 l0 -210 320 0 320 0 0 -790 0 -790 245 0 245 0 0 790 0
790 325 0 325 0 0 210 0 210 -890 0 -890 0 0 -210z" />
        <path
            d="M15071 5868 c-29 -73 -204 -522 -390 -998 l-337 -865 249 -3 249 -2
64 59 c272 255 713 251 969 -9 l49 -50 262 0 261 0 -349 908 c-192 499 -365
949 -384 1000 l-36 92 -278 0 -278 0 -51 -132z m477 -822 c82 -240 148 -436
147 -436 -1 0 -29 14 -63 30 -68 35 -173 60 -247 60 -74 0 -182 -26 -250 -59
-33 -17 -61 -29 -62 -28 -1 2 52 158 117 347 195 561 192 554 202 537 4 -9 75
-212 156 -451z" />
        <path
            d="M16280 5790 l0 -210 320 0 320 0 0 -790 0 -790 245 0 245 0 0 790 0
790 325 0 325 0 0 210 0 210 -890 0 -890 0 0 -210z" />
        <path
            d="M18340 5000 l0 -1000 760 0 760 0 0 205 0 205 -515 0 -515 0 0 200 0
200 360 0 360 0 0 200 0 200 -360 0 -360 0 0 190 0 190 510 0 510 0 0 205 0
205 -755 0 -755 0 0 -1000z" />
        <path
            d="M22220 5000 l0 -1000 245 0 245 0 0 395 0 395 400 0 400 0 0 -395 0
-395 245 0 245 0 0 1000 0 1000 -245 0 -245 0 0 -390 0 -390 -400 0 -400 0 0
390 0 390 -245 0 -245 0 0 -1000z" />
        <g fill="#FFFAFA" stroke="#FFFAFA" stroke-width="4">
            <path
                d="M8992 2990 c-190 -40 -320 -250 -284 -460 39 -225 228 -361 447 -321
148 27 257 138 295 300 17 70 8 180 -20 254 -30 79 -111 166 -188 201 -67 29
-178 41 -250 26z m199 -107 c60 -23 125 -103 149 -180 23 -75 24 -101 9 -175
-16 -74 -40 -117 -91 -165 -108 -99 -274 -91 -372 18 -106 118 -108 315 -4
434 22 25 53 52 69 60 70 37 162 40 240 8z" />
            <path
                d="M11540 2985 c-106 -30 -164 -102 -163 -206 1 -61 13 -89 55 -129 36
-34 71 -49 186 -79 59 -16 122 -36 140 -45 59 -31 78 -104 42 -163 -29 -48
-73 -67 -155 -68 -90 0 -134 25 -167 95 -23 49 -24 49 -70 50 -42 0 -48 -3
-48 -20 0 -64 84 -168 158 -197 63 -24 190 -24 254 0 80 31 148 127 148 208 0
45 -21 100 -51 134 -39 44 -109 76 -227 105 -147 36 -192 82 -159 163 28 66
138 98 220 63 36 -14 87 -69 87 -92 0 -10 13 -14 50 -14 57 0 59 5 31 65 -53
116 -189 169 -331 130z" />
            <path
                d="M13111 2990 c-128 -27 -225 -124 -266 -264 -23 -80 -17 -219 14 -298
31 -81 104 -157 183 -194 56 -25 74 -29 158 -28 81 0 103 4 151 26 86 39 152
119 174 211 7 27 7 27 -42 27 l-49 0 -21 -49 c-49 -116 -215 -163 -341 -97
-42 22 -89 76 -114 131 -19 41 -23 67 -23 145 0 114 24 179 87 236 55 50 102
67 178 67 110 1 189 -50 221 -141 10 -30 14 -32 61 -32 50 0 50 0 43 28 -22
91 -86 170 -170 208 -59 27 -174 38 -244 24z" />
            <path
                d="M13930 2985 c-101 -29 -173 -90 -220 -188 -83 -172 -49 -381 81 -501
76 -71 134 -91 254 -90 112 1 175 25 238 93 35 38 87 137 87 167 0 3 -23 4
-52 2 -47 -3 -52 -5 -61 -33 -28 -89 -110 -140 -222 -139 -155 2 -253 106
-263 281 -6 114 16 181 83 250 66 68 139 91 229 75 82 -16 128 -49 161 -116
l27 -56 49 0 c49 0 49 0 43 28 -23 92 -106 187 -192 217 -68 24 -176 28 -242
10z" />
            <path
                d="M15357 2990 c-117 -30 -189 -127 -173 -235 15 -96 70 -137 246 -185
133 -36 174 -58 189 -102 32 -91 -48 -178 -164 -178 -84 0 -169 57 -182 121
-5 28 -8 29 -59 29 -54 0 -54 0 -48 -27 13 -58 61 -128 107 -160 80 -54 221
-67 312 -29 86 37 138 116 139 214 0 53 -5 68 -30 105 -38 54 -108 92 -227
121 -51 13 -107 31 -124 40 -63 32 -79 85 -43 144 28 45 79 65 152 60 67 -5
103 -27 133 -81 19 -35 23 -37 68 -37 52 0 52 -2 26 66 -13 36 -69 94 -111
115 -46 23 -154 33 -211 19z" />
            <path
                d="M16038 2986 c-93 -25 -153 -87 -164 -168 -18 -129 47 -200 221 -242
175 -43 215 -70 215 -152 0 -86 -94 -146 -202 -130 -64 10 -109 42 -137 99
-23 47 -23 47 -73 47 -49 0 -50 0 -43 -27 21 -85 65 -142 139 -181 44 -23 63
-26 141 -27 80 0 96 3 150 30 86 43 119 93 123 188 3 65 1 76 -26 117 -37 58
-98 91 -232 125 -146 37 -179 60 -180 127 0 75 74 124 177 116 63 -6 100 -29
126 -81 18 -35 21 -37 67 -37 49 0 49 0 41 28 -41 141 -183 211 -343 168z" />
            <path
                d="M17268 2986 c-93 -25 -156 -90 -165 -170 -15 -129 49 -199 222 -240
175 -43 215 -70 215 -152 0 -86 -94 -146 -202 -130 -64 10 -109 42 -137 99
-23 47 -24 47 -73 47 l-50 0 7 -32 c32 -147 188 -234 356 -199 125 26 199 111
199 229 0 118 -69 179 -260 227 -146 37 -179 60 -180 127 0 75 74 124 175 116
62 -5 106 -33 129 -83 16 -33 20 -35 66 -35 49 0 49 0 41 28 -41 140 -184 211
-343 168z" />
            <path
                d="M18304 2987 c-275 -71 -373 -444 -175 -669 78 -88 209 -131 336 -110
131 21 221 90 278 210 30 63 32 74 32 182 0 105 -2 120 -28 174 -43 93 -88
140 -171 181 -84 42 -185 54 -272 32z m230 -115 c57 -31 97 -81 127 -161 17
-46 20 -70 16 -131 -9 -122 -57 -205 -148 -255 -70 -38 -170 -41 -242 -6 -189
92 -213 406 -42 537 78 59 197 65 289 16z" />
            <path
                d="M20973 2990 c-115 -24 -196 -87 -249 -195 -31 -63 -37 -86 -41 -162
-13 -228 99 -387 300 -424 159 -29 309 38 376 168 21 43 41 136 41 195 l0 38
-165 0 -165 0 0 -40 0 -40 116 0 117 0 -7 -41 c-18 -111 -96 -184 -211 -196
-114 -12 -220 49 -272 155 -24 50 -27 68 -27 152 0 84 3 102 27 152 52 106
158 167 272 155 93 -10 159 -56 187 -133 12 -33 14 -34 64 -34 l53 0 -8 28
c-25 87 -94 167 -173 202 -53 23 -172 34 -235 20z" />
            <path
                d="M21802 2984 c-94 -25 -151 -64 -203 -140 -117 -170 -87 -433 62 -558
108 -91 283 -110 417 -45 66 32 128 99 165 177 30 63 32 74 32 182 0 104 -3
120 -27 173 -55 116 -130 182 -243 212 -72 18 -133 18 -203 -1z m232 -112
c121 -65 178 -241 127 -387 -26 -74 -68 -125 -133 -160 -69 -38 -170 -41 -241
-6 -168 81 -211 347 -82 498 79 93 217 115 329 55z" />
            <path
                d="M8099 2813 c54 -98 117 -212 139 -254 l42 -76 0 -136 0 -137 50 0 50
0 0 141 0 141 133 241 c72 132 134 244 135 249 2 4 -21 8 -50 8 l-54 0 -105
-195 c-57 -107 -107 -194 -112 -192 -4 1 -53 88 -110 192 l-102 190 -57 3 -57
3 98 -178z" />
            <path
                d="M9620 2712 c0 -322 5 -354 71 -422 59 -60 116 -83 214 -84 44 -1 101
5 128 13 60 17 128 77 158 138 23 47 24 56 27 341 l3 292 -50 0 -51 0 0 -257
c0 -268 -6 -319 -37 -362 -39 -51 -70 -65 -148 -69 -103 -6 -154 19 -189 91
-26 51 -26 51 -26 324 l0 273 -50 0 -50 0 0 -278z" />
            <path
                d="M10400 2601 l0 -391 50 0 50 0 0 165 0 166 76 -3 76 -3 95 -162 95
-163 55 0 c40 0 54 3 50 13 -2 6 -46 82 -96 167 -51 85 -89 156 -84 157 4 2
26 13 47 26 156 89 150 309 -11 389 -44 21 -64 23 -225 26 l-178 4 0 -391z
m357 279 c43 -26 65 -62 67 -108 1 -54 -21 -99 -63 -124 -32 -20 -49 -23 -146
-23 l-110 0 -3 138 -3 137 113 0 c94 0 118 -3 145 -20z" />
            <path
                d="M12072 2693 l3 -298 29 -53 c31 -56 73 -93 134 -119 47 -20 181 -23
245 -4 60 17 128 77 159 139 22 45 23 57 26 340 l3 292 -50 0 -51 0 0 -262 c0
-150 -5 -279 -10 -300 -14 -48 -55 -97 -97 -114 -50 -21 -149 -18 -199 7 -33
15 -49 32 -68 72 -26 51 -26 51 -26 324 l0 273 -51 0 -50 0 3 -297z" />
            <path
                d="M14530 2600 l0 -390 250 0 250 0 0 45 0 45 -200 0 -200 0 0 130 0
130 173 2 172 3 3 43 3 42 -175 0 -176 0 0 125 0 125 200 0 200 0 0 45 0 45
-250 0 -250 0 0 -390z" />
            <path d="M16820 2600 l0 -390 50 0 50 0 0 390 0 390 -50 0 -50 0 0 -390z" />
            <path
                d="M18942 2698 c4 -336 7 -348 89 -422 59 -53 117 -71 224 -70 124 2
199 43 251 136 l29 53 3 298 3 297 -50 0 -51 0 0 -269 c0 -173 -4 -280 -11
-302 -15 -43 -55 -88 -96 -105 -41 -18 -144 -18 -186 0 -42 17 -83 66 -97 114
-5 21 -10 150 -10 300 l0 262 -51 0 -51 0 4 -292z" />
            <path
                d="M19730 2601 l0 -391 50 0 50 0 0 165 0 165 73 0 72 -1 95 -164 94
-165 59 0 59 0 -20 33 c-11 17 -57 93 -101 167 l-80 135 37 16 c137 60 176
245 74 352 -60 63 -90 71 -284 75 l-178 4 0 -391z m375 257 c19 -20 37 -49 41
-63 10 -40 -5 -96 -35 -126 -36 -36 -87 -49 -193 -49 l-88 0 0 141 0 141 121
-4 121 -3 33 -37z" />
            <path
                d="M22616 2918 c-15 -40 -77 -215 -139 -388 l-113 -315 49 -3 c27 -2 51
-1 54 2 3 3 19 44 37 93 l31 88 170 0 170 0 31 -88 c18 -49 34 -90 37 -93 3
-3 27 -4 54 -2 l50 3 -113 315 c-63 173 -125 348 -140 388 l-26 72 -63 0 -63
0 -26 -72z m159 -238 c36 -101 65 -185 65 -187 0 -2 -61 -3 -136 -3 -105 0
-135 3 -132 13 107 301 131 367 134 364 2 -1 33 -86 69 -187z" />
            <path
                d="M23200 2600 l0 -390 250 0 250 0 0 45 0 45 -200 0 -200 0 0 345 0
345 -50 0 -50 0 0 -390z" />
            <path
                d="M23884 2953 c3 -21 6 -152 6 -291 l0 -253 43 3 42 3 3 288 2 287 -51
0 -52 0 7 -37z" />
            <path
                d="M23890 2310 c-37 -37 -20 -93 32 -105 21 -5 33 -1 52 19 32 31 33 56
3 84 -29 27 -61 28 -87 2z" />
        </g>
    </g>
</svg>